<?xml version="1.0" encoding="UTF-8" standalone="no"?>
<svg width="20px" height="20px" viewBox="0 0 20 20" version="1.1" xmlns="http://www.w3.org/2000/svg" xmlns:xlink="http://www.w3.org/1999/xlink">
    <!-- Generator: Sketch 44.1 (41455) - http://www.bohemiancoding.com/sketch -->
    <title>icon-print</title>
    <desc>Created with Sketch.</desc>
    <defs></defs>
    <g id="Page-1" stroke="none" stroke-width="1" fill="none" fill-rule="evenodd">
        <g id="icon-print" fill="#FFFFFF">
            <path d="M17.8498403,14.5353871 L15.5782748,14.5353871 L15.5782748,17.9048345 C15.5782748,18.5410377 15.0633307,19.0567823 14.428115,19.0567823 L5.514377,19.0567823 C4.87916131,19.0567823 4.36421725,18.5410377 4.36421725,17.9048345 L4.36421725,14.5353871 L2.15015974,14.5353871 C1.51494406,14.5353871 1,14.0196425 1,13.3834392 L1,6.70214179 C1,6.06593857 1.51494406,5.55019395 2.15015974,5.55019395 L17.8498403,5.55019395 C18.4850559,5.55019395 19,6.06593857 19,6.70214179 L19,13.3834392 C19,14.0196425 18.4850559,14.5353871 17.8498403,14.5353871 L17.8498403,14.5353871 Z M16.7284345,6.6445444 C16.1090992,6.6445444 15.6070288,7.1473954 15.6070288,7.76769354 C15.6070288,8.38799168 16.1090992,8.89084268 16.7284345,8.89084268 C17.3477698,8.89084268 17.8498403,8.38799168 17.8498403,7.76769354 C17.8498403,7.1473954 17.3477698,6.6445444 16.7284345,6.6445444 L16.7284345,6.6445444 Z M5.485623,11.1659397 L14.514377,11.1659397 L14.514377,17.9336332 L5.485623,17.9336332 L5.485623,11.1659397 L5.485623,11.1659397 Z M6.63578275,12.3178875 L13.3354633,12.3178875 L13.3354633,13.4122379 L6.63578275,13.4122379 L6.63578275,12.3178875 L6.63578275,12.3178875 Z M6.63578275,14.5641858 L12.2428115,14.5641858 L12.2428115,15.6585362 L6.63578275,15.6585362 L6.63578275,14.5641858 L6.63578275,14.5641858 Z M5.54313099,1 L14.456869,1 C15.0920847,1 15.6070288,1.51574461 15.6070288,2.15194784 L15.6070288,4.39824612 L14.5176262,4.39824612 L14.514377,2.15194784 L5.485623,2.15194784 L5.48749201,4.39824612 L4.39297125,4.39824612 L4.39297125,2.15194784 C4.39297125,1.51574461 4.9079153,1 5.54313099,1 L5.54313099,1 Z" id="Shape"></path>
        </g>
    </g>
</svg>