<?xml version="1.0" encoding="UTF-8" standalone="no"?>
<svg width="50px" height="50px" viewBox="0 0 50 50" version="1.1" xmlns="http://www.w3.org/2000/svg" xmlns:xlink="http://www.w3.org/1999/xlink">
    <!-- Generator: Sketch 44.1 (41455) - http://www.bohemiancoding.com/sketch -->
    <title>internetspiegel-cta</title>
    <desc>Created with Sketch.</desc>
    <defs></defs>
    <g id="Page-1" stroke="none" stroke-width="1" fill="none" fill-rule="evenodd">
        <g id="internetspiegel-cta" fill="#FFFFFF">
            <path d="M17.587156,21.7614679 L32.266055,21.7614679 C32.1743119,19.6972477 32.0366972,18.4587156 31.3944954,16.7614679 C30.3394495,14.0091743 28.1834862,11.9449541 24.9266055,11.9449541 C21.6697248,11.9449541 19.5137615,14.0091743 18.4587156,16.7614679 C17.8165138,18.4587156 17.6330275,19.6972477 17.587156,21.7614679 Z M8,29.1926606 L8,24.6055046 C8,11.6238532 14.146789,3 24.9266055,3 C34.9266055,3 41.8073394,10.9816514 41.8073394,25.7981651 C41.8073394,43.412844 33,48 23.8715596,48 C16.8990826,48 13.0917431,45.706422 9.10091743,41.3027523 L15.0183486,34.8807339 C17.4954128,37.587156 19.559633,39.0091743 23.7798165,39.0091743 C29.2385321,39.0091743 32.2201835,34.9266055 32.2201835,29.1926606 L8,29.1926606 Z" id="Shape"></path>
        </g>
    </g>
</svg>