<?xml version="1.0" encoding="UTF-8" standalone="no"?>
<svg width="600px" height="600px" viewBox="0 0 600 600" version="1.1" xmlns="http://www.w3.org/2000/svg" xmlns:xlink="http://www.w3.org/1999/xlink" style="background: #00850B;">
    <!-- Generator: Sketch 44.1 (41455) - http://www.bohemiancoding.com/sketch -->
    <title>internetspiegel-logo</title>
    <desc>Created with Sketch.</desc>
    <defs></defs>
    <g id="Page-1" stroke="none" stroke-width="1" fill="none" fill-rule="evenodd">
        <g id="internetspiegel-logo" fill="#FFFFFF">
            <g id="Shape">
                <path d="M22.2423146,19.9638336 L22.2423146,0 L0,0 L0,19.9638336 L22.2423146,19.9638336 Z M22.0253165,133.128391 L22.0253165,39.2766727 L0.325497288,39.2766727 L0.325497288,133.128391 L22.0253165,133.128391 Z"></path>
                <path d="M120.433996,133.128391 L120.433996,69.5479204 C120.433996,58.6980108 118.589512,49.4755877 111.64557,41.6636528 C106.76311,36.238698 99.8191682,33.0922242 90.8137432,33.0922242 C82.2379763,33.0242893 74.0506524,36.6630999 68.3544304,43.074141 L68.3544304,34.6112116 L47.1971067,34.6112116 L47.1971067,133.128391 L68.8969259,133.128391 L68.8969259,73.562387 C68.8969259,59.3490054 76.8173599,54.7920434 83.9783002,54.7920434 C91.1392405,54.7920434 98.7341772,59.3490054 98.7341772,72.9113924 L98.7341772,133.128391 L120.433996,133.128391 Z"></path>
                <path d="M182.820976,133.019892 L182.820976,112.83906 L174.900542,112.83906 C169.692586,112.83906 167.305606,109.584087 167.305606,103.942134 L167.305606,56.3110307 L182.820976,56.3110307 L182.820976,37.7576854 L167.305606,37.7576854 L167.305606,9.54792043 L145.605787,9.54792043 L145.605787,37.7576854 L136.383363,37.7576854 L136.383363,56.4195298 L145.605787,56.4195298 L145.605787,105.461121 C145.605787,119.349005 153.092224,133.019892 170.886076,133.019892 L182.820976,133.019892 Z"></path>
                <path d="M253.453888,75.5153707 L220.361664,75.5153707 C220.578662,70.8499096 220.904159,68.0289331 222.314647,64.2314647 C224.701627,58.0470163 229.475588,53.3815552 236.853526,53.3815552 C244.231465,53.3815552 249.005425,58.0470163 251.392405,64.2314647 C253.019892,68.0289331 253.345389,70.8499096 253.453888,75.5153707 Z M275.045208,92.2242315 L275.045208,81.9168174 C275.045208,52.6220615 261.265823,33.2007233 236.962025,33.2007233 C214.394213,33.2007233 198.770344,51.1030741 198.770344,84.5207957 C198.770344,124.231465 218.734177,134.538879 239.240506,134.538879 C254.972875,134.538879 263.544304,129.439421 272.549729,119.457505 L259.20434,105.027125 C253.670886,111.103074 249.005425,114.358047 239.457505,114.358047 C227.088608,114.358047 220.361664,105.244123 220.361664,92.2242315 L275.045208,92.2242315 Z"></path>
                <path d="M359.674503,42.2061483 C353.598553,35.4792043 347.522604,33.0922242 338.951175,33.0922242 C330.379747,33.0922242 321.048825,37.8661844 316.81736,43.5081374 L316.81736,34.6112116 L295.660036,34.6112116 L295.660036,133.128391 L317.359855,133.128391 L317.359855,73.7793852 C317.359855,60.5424955 324.737794,54.7920434 331.573237,54.7920434 C338.40868,54.7920434 339.819168,56.8535262 343.18264,60.7594937 L359.674503,42.2061483 Z"></path>
                <path d="M445.388788,133.128391 L445.388788,69.5479204 C445.388788,58.6980108 443.544304,49.4755877 436.600362,41.6636528 C431.717902,36.238698 424.77396,33.0922242 415.768535,33.0922242 C407.175627,33.0517298 398.985527,36.7313399 393.309222,43.1826401 L393.309222,34.7197107 L372.151899,34.7197107 L372.151899,133.23689 L393.851718,133.23689 L393.851718,73.562387 C393.851718,59.3490054 401.772152,54.7920434 408.933092,54.7920434 C416.094033,54.7920434 423.797468,59.3490054 423.797468,72.9113924 L423.797468,133.128391 L445.388788,133.128391 Z"></path>
                <path d="M519.059675,75.5153707 L485.96745,75.5153707 C486.075949,70.8499096 486.509946,68.0289331 487.920434,64.2314647 C490.307414,58.0470163 495.081374,53.3815552 502.459313,53.3815552 C509.837251,53.3815552 514.611212,58.0470163 516.998192,64.2314647 C518.625678,68.0289331 518.951175,70.8499096 519.059675,75.5153707 Z M540.650995,92.2242315 L540.650995,81.9168174 C540.650995,52.6220615 526.76311,33.2007233 502.459313,33.2007233 C479.891501,33.2007233 464.267631,51.1030741 464.267631,84.5207957 C464.267631,124.231465 484.231465,134.538879 504.737794,134.538879 C520.470163,134.538879 529.041591,129.439421 538.047016,119.457505 L524.701627,105.027125 C519.168174,111.103074 514.394213,114.358047 504.954792,114.358047 C492.585895,114.358047 485.858951,105.244123 485.858951,92.2242315 L540.650995,92.2242315 Z"></path>
                <path d="M600,133.019892 L600,112.83906 L592.079566,112.83906 C586.871609,112.83906 584.484629,109.584087 584.484629,103.942134 L584.484629,56.3110307 L600,56.3110307 L600,37.7576854 L584.484629,37.7576854 L584.484629,9.54792043 L562.78481,9.54792043 L562.78481,37.7576854 L553.453888,37.7576854 L553.453888,56.4195298 L562.78481,56.4195298 L562.78481,105.461121 C562.78481,119.349005 570.271248,133.019892 588.065099,133.019892 L600,133.019892 Z"></path>
                <path d="M102.965642,266.36528 C102.965642,248.137432 93.7432188,237.179024 75.6238698,235.117541 L61.5189873,233.490054 C54.7920434,232.622061 52.1880651,229.584087 52.1880651,224.267631 C52.1880651,218.951175 55.9855335,214.068716 64.9909584,214.068716 C73.9963834,214.068716 80.7233273,215.696203 86.039783,221.229656 L100.144665,204.954792 C91.2477396,195.840868 79.5298373,192.911392 65.3164557,192.911392 C46.7631103,192.911392 29.7287523,204.195298 29.7287523,226.112116 C29.7287523,245.750452 40.1446655,254.104882 56.5280289,255.949367 L71.0669078,257.576854 C78.3363472,258.444846 80.6148282,262.025316 80.6148282,267.341772 C80.6148282,275.370705 72.477396,278.40868 64.6654611,278.40868 C56.8535262,278.40868 47.7396022,277.21519 40.2531646,268.426763 L24.954792,285.244123 C36.8896926,297.830018 50.0180832,299.566004 64.2314647,299.566004 C85.6057866,299.566004 102.965642,289.15009 102.965642,266.36528 Z"></path>
                <path d="M176.962025,246.835443 C176.962025,263.652803 175.22604,276.889693 161.338156,276.889693 C147.450271,276.889693 145.714286,263.652803 145.714286,246.835443 C145.714286,230.018083 147.450271,215.913201 161.338156,215.913201 C175.22604,215.913201 176.962025,229.15009 176.962025,246.292948 L176.962025,246.835443 Z M199.746835,246.292948 C199.746835,228.499096 199.095841,212.224231 190.307414,202.242315 C185.207957,196.383363 177.179024,193.019892 168.173599,193.019892 C159.168174,193.019892 151.464738,195.949367 145.063291,203.761302 L145.063291,194.647378 L122.929476,194.647378 L122.929476,335.913201 L145.605787,335.913201 L145.605787,289.584087 C151.464738,296.962025 158.625678,299.783002 168.065099,299.783002 C177.504521,299.783002 185.207957,296.41953 190.198915,290.669078 C198.987342,280.687161 199.638336,264.412297 199.638336,246.943942 L199.746835,246.292948 Z"></path>
                <path d="M244.122966,179.349005 L244.122966,158.40868 L220.904159,158.40868 L220.904159,179.349005 L244.122966,179.349005 Z M243.905967,298.155515 L243.905967,199.638336 L221.121157,199.638336 L221.121157,298.155515 L243.905967,298.155515 Z"></path>
                <path d="M288.173599,237.61302 L322.893309,237.61302 C322.676311,232.730561 322.350814,229.801085 320.831826,225.786618 C318.336347,219.276673 313.23689,214.394213 305.533454,214.394213 C297.830018,214.394213 292.730561,219.276673 290.235081,225.786618 C288.716094,229.801085 288.282098,232.730561 288.173599,237.61302 Z M265.497288,255.189873 L265.497288,244.339964 C265.497288,213.63472 280.036166,193.23689 305.533454,193.23689 C329.186257,193.23689 345.461121,212.115732 345.461121,247.16094 C345.461121,288.824593 324.629295,299.674503 303.037975,299.674503 C286.546112,299.674503 277.540687,294.249548 268.101266,283.833635 L282.097649,268.643761 C287.9566,275.045208 292.83906,278.40868 302.820976,278.40868 C315.732369,278.40868 322.78481,268.75226 322.78481,255.189873 L265.497288,255.189873 Z"></path>
                <path d="M416.202532,243.037975 C416.202532,256.925859 414.683544,270.379747 401.229656,270.379747 C387.775769,270.379747 386.473779,256.925859 386.473779,243.037975 C386.473779,229.15009 387.884268,215.913201 401.229656,215.913201 C414.575045,215.913201 416.202532,229.15009 416.202532,243.037975 Z M438.878843,293.815552 L438.878843,194.755877 L416.853526,194.755877 L416.853526,204.412297 C410.560579,196.057866 404.37613,193.128391 394.82821,193.128391 C385.280289,193.128391 378.119349,196.491863 373.019892,202.133816 C364.448463,211.681736 363.797468,224.810127 363.797468,243.146474 C363.797468,261.482821 364.448463,274.719711 373.019892,284.267631 C378.119349,289.909584 385.822785,293.273056 394.611212,293.273056 C403.399638,293.273056 410.235081,290.560579 416.202532,283.074141 L416.202532,293.381555 C416.202532,304.556962 411.537071,316.274864 397.974684,316.274864 C390.271248,316.274864 385.280289,313.779385 380.180832,307.811935 L365.96745,324.412297 C375.406872,334.394213 385.063291,337.540687 398.951175,337.540687 C423.363472,337.432188 438.878843,319.963834 438.878843,293.815552 Z"></path>
                <path d="M517.757685,237.61302 L483.037975,237.61302 C483.254973,232.730561 483.58047,229.801085 485.099458,225.786618 C487.594937,219.276673 492.585895,214.394213 500.289331,214.394213 C507.992767,214.394213 513.092224,219.276673 515.587703,225.786618 C517.21519,229.801085 517.540687,232.730561 517.757685,237.61302 Z M540.433996,255.189873 L540.433996,244.339964 C540.433996,213.63472 525.895118,193.23689 500.39783,193.23689 C476.745027,193.23689 460.470163,212.115732 460.470163,247.16094 C460.470163,288.824593 481.301989,299.674503 502.893309,299.674503 C519.385172,299.674503 528.390597,294.249548 537.830018,283.833635 L523.833635,268.643761 C517.974684,275.045208 513.092224,278.40868 503.110307,278.40868 C490.198915,278.40868 483.146474,268.75226 483.146474,255.189873 L540.433996,255.189873 Z"></path>
                <path d="M600,297.938517 L600,276.781193 L591.211573,276.781193 C585.352622,276.781193 583.074141,273.63472 583.074141,267.55877 L583.074141,158.517179 L560.289331,158.517179 L560.289331,269.077758 C560.289331,283.508137 568.209765,297.938517 586.871609,297.938517 L600,297.938517 Z"></path>
            </g>
        </g>
    </g>
</svg>